<?xml version="1.0" standalone="no"?>
<!DOCTYPE svg PUBLIC "-//W3C//DTD SVG 20010904//EN"
 "http://www.w3.org/TR/2001/REC-SVG-20010904/DTD/svg10.dtd">
<svg version="1.0" xmlns="http://www.w3.org/2000/svg"
 width="512.000000pt" height="512.000000pt" viewBox="0 0 512.000000 512.000000"
 preserveAspectRatio="xMidYMid meet">
<metadata>
Created by potrace 1.14, written by Peter Selinger 2001-2017
</metadata>
<g transform="translate(0.000000,512.000000) scale(0.100000,-0.100000)"
fill="#000000" stroke="none">
<path d="M2348 3773 c-66 -264 -168 -693 -168 -705 0 -5 86 -8 190 -8 l190 0
0 -245 0 -245 -80 0 c-73 0 -80 -2 -80 -20 0 -19 7 -20 189 -20 155 0 190 3
194 14 5 11 18 13 59 9 59 -6 274 12 329 27 42 12 79 44 79 68 -1 13 -6 10
-21 -10 -37 -50 -96 -61 -366 -66 l-243 -4 0 246 0 246 190 0 c108 0 190 4
190 9 0 12 -34 155 -166 704 l-36 147 -207 0 -207 0 -36 -147z m441 105 c5
-13 33 -122 61 -243 29 -121 70 -293 91 -382 21 -90 39 -165 39 -168 0 -3
-175 -5 -390 -5 -216 0 -390 4 -390 9 0 5 31 138 70 297 38 159 79 330 90 379
35 150 9 135 230 135 188 0 191 0 199 -22z"/>
<path d="M3244 2775 c-7 -19 -13 -49 -13 -67 l1 -33 7 37 c4 20 15 48 24 62
20 30 21 36 6 36 -5 0 -17 -16 -25 -35z"/>
<path d="M1250 2075 c0 -144 4 -235 10 -235 5 0 11 39 12 88 l3 87 160 0 160
0 3 -87 c1 -49 7 -88 12 -88 6 0 10 91 10 235 0 145 -4 235 -10 235 -5 0 -11
-57 -12 -137 l-3 -138 -160 0 -160 0 -3 138 c-1 80 -7 137 -12 137 -6 0 -10
-90 -10 -235z"/>
<path d="M2910 2075 l0 -235 88 2 87 2 -77 3 -78 4 0 229 c0 147 -4 230 -10
230 -6 0 -10 -85 -10 -235z"/>
<path d="M3744 2075 c0 -145 2 -201 5 -140 7 110 17 137 61 160 54 28 125 10
152 -38 7 -12 15 -67 19 -122 l7 -100 -2 109 -2 108 -37 34 c-29 27 -45 34
-78 34 -43 0 -79 -14 -92 -36 -19 -33 -27 -6 -30 109 -1 67 -3 14 -3 -118z"/>
<path d="M3180 2204 c0 -9 5 -14 12 -12 18 6 21 28 4 28 -9 0 -16 -7 -16 -16z"/>
<path d="M1845 2123 c-64 -17 -105 -76 -105 -152 0 -39 6 -56 26 -81 71 -84
180 -79 246 11 43 57 17 163 -47 200 -34 20 -90 30 -120 22z m102 -33 c45 -27
66 -64 65 -115 -1 -75 -52 -125 -127 -125 -77 0 -125 51 -125 132 0 50 19 81
64 109 40 24 83 24 123 -1z"/>
<path d="M2246 2120 c-16 -5 -42 -21 -57 -36 l-29 -28 0 32 c0 18 -4 32 -10
32 -6 0 -10 -75 -10 -205 0 -130 4 -205 10 -205 6 0 10 37 10 91 l0 90 35 -27
c68 -52 169 -39 218 28 11 14 22 48 24 75 4 39 0 55 -19 82 -44 64 -108 91
-172 71z m99 -24 c51 -22 77 -69 72 -130 -4 -42 -10 -55 -41 -83 -30 -28 -43
-33 -86 -33 -43 0 -56 5 -86 33 -66 60 -53 166 27 209 41 22 68 23 114 4z"/>
<path d="M2637 2116 c-51 -19 -73 -40 -92 -91 -36 -93 38 -195 142 -195 38 0
103 31 103 50 0 5 -15 1 -32 -10 -45 -27 -118 -25 -156 5 -1 1 40 44 93 95 52
52 95 99 95 105 0 14 -47 41 -85 49 -16 3 -47 -1 -68 -8z m100 -21 l37 -16
-94 -94 c-51 -52 -97 -92 -102 -89 -14 9 -31 82 -24 107 3 14 18 40 33 57 43
51 86 61 150 35z"/>
<path d="M3180 1980 c0 -87 4 -140 10 -140 6 0 10 53 10 140 0 87 -4 140 -10
140 -6 0 -10 -53 -10 -140z"/>
<path d="M3364 2076 c-39 -39 -44 -48 -44 -90 0 -79 46 -139 117 -152 43 -8
104 9 128 36 10 11 23 20 28 20 14 0 0 -89 -18 -117 -38 -57 -132 -68 -195
-23 -19 13 -31 18 -28 10 7 -23 71 -50 118 -50 27 0 58 8 78 20 53 33 62 68
60 242 0 84 -3 138 -5 121 -4 -34 -16 -42 -30 -20 -18 30 -59 47 -112 47 -50
0 -57 -3 -97 -44z m187 -2 c76 -73 51 -192 -48 -225 -97 -32 -202 77 -163 170
12 30 54 74 80 84 34 14 101 -1 131 -29z"/>
<path d="M4110 2111 c0 -8 79 -3 89 5 2 2 -17 4 -42 4 -26 0 -47 -4 -47 -9z"/>
<path d="M4111 1909 c-1 -23 54 -72 76 -66 16 4 15 5 -3 6 -21 1 -57 34 -67
61 -5 13 -6 13 -6 -1z"/>
<path d="M2594 1527 c-3 -8 -4 -49 -2 -93 2 -62 6 -79 18 -79 12 0 16 18 18
93 2 78 0 92 -13 92 -9 0 -18 -6 -21 -13z"/>
<path d="M2320 1440 l0 -90 34 0 c62 0 97 12 108 36 9 19 8 28 -7 44 -14 16
-16 23 -7 32 18 18 14 46 -7 58 -11 5 -42 10 -70 10 l-51 0 0 -90z m95 45 c0
-14 -8 -21 -27 -23 -24 -3 -28 0 -28 23 0 23 4 26 28 23 19 -2 27 -9 27 -23z
m10 -80 c0 -15 -8 -21 -32 -23 -30 -3 -33 -1 -33 23 0 24 3 26 33 23 24 -2 32
-8 32 -23z"/>
<path d="M2775 1476 c-14 -10 -20 -26 -20 -56 0 -48 21 -70 67 -70 59 0 93 85
50 123 -23 21 -71 22 -97 3z m75 -26 c6 -11 8 -31 4 -44 -12 -50 -64 -39 -64
13 0 48 40 68 60 31z"/>
<path d="M3032 1474 c-16 -11 -22 -25 -22 -53 0 -50 27 -76 71 -67 26 5 30 3
25 -10 -3 -9 -6 -18 -6 -20 0 -2 -18 -4 -40 -4 -40 0 -53 -13 -24 -24 27 -10
59 -7 82 10 19 13 22 24 22 88 0 43 -5 77 -12 84 -17 17 -69 15 -96 -4z m74
-28 c9 -39 1 -70 -20 -74 -38 -8 -60 52 -30 82 22 23 43 20 50 -8z"/>
</g>
</svg>
